<svg xmlns="http://www.w3.org/2000/svg" width="20" height="20" viewBox="0 0 24 24" fill="rgb(26 46 5 / 25%)"
     stroke="rgb(26 46 5)" opacity="60"
     stroke-width="2" stroke-linecap="round" stroke-linejoin="round"
     class="lucide lucide-package-plus stroke-[1] w-5 h-5 side-menu__link__icon">
  <path d="M16 16h6"></path>
  <path d="M19 13v6"></path>
  <path
    d="M21 10V8a2 2 0 0 0-1-1.73l-7-4a2 2 0 0 0-2 0l-7 4A2 2 0 0 0 3 8v8a2 2 0 0 0 1 1.73l7 4a2 2 0 0 0 2 0l2-1.14"></path>
  <path d="m7.5 4.27 9 5.15"></path>
  <polyline points="3.29 7 12 12 20.71 7"></polyline>
  <line x1="12" x2="12" y1="22" y2="12"></line>
</svg>
